<svg width="25" height="23" viewBox="0 0 25 23" fill="none" xmlns="http://www.w3.org/2000/svg">
<path d="M11.449 0.727102C11.7483 -0.194209 13.0517 -0.194211 13.3511 0.7271L15.4085 7.05923C15.5424 7.47126 15.9263 7.75022 16.3596 7.75022H23.0176C23.9863 7.75022 24.3891 8.98983 23.6054 9.55923L18.2189 13.4727C17.8684 13.7274 17.7218 14.1787 17.8556 14.5907L19.9131 20.9229C20.2124 21.8442 19.158 22.6103 18.3742 22.0409L12.9878 18.1274C12.6373 17.8728 12.1627 17.8728 11.8122 18.1274L6.4258 22.0409C5.64209 22.6103 4.5876 21.8442 4.88696 20.9229L6.94439 14.5907C7.07827 14.1787 6.93161 13.7274 6.58112 13.4727L1.19469 9.55924C0.410974 8.98983 0.813747 7.75022 1.78247 7.75022H8.44047C8.8737 7.75022 9.25765 7.47126 9.39153 7.05923L11.449 0.727102Z" fill="white"/>
</svg>
