<svg width="37" height="35" viewBox="0 0 37 35" fill="none" xmlns="http://www.w3.org/2000/svg">
<path d="M17.249 0.927048C17.5483 0.00573772 18.8517 0.00574034 19.1511 0.927051L22.7352 11.9579C22.8691 12.3699 23.2531 12.6489 23.6863 12.6489H35.2848C36.2535 12.6489 36.6563 13.8885 35.8726 14.4579L26.4892 21.2753C26.1387 21.53 25.992 21.9813 26.1259 22.3933L29.71 33.4242C30.0094 34.3455 28.9549 35.1116 28.1712 34.5422L18.7878 27.7248C18.4373 27.4701 17.9627 27.4701 17.6122 27.7248L8.22886 34.5422C7.44515 35.1116 6.39067 34.3455 6.69002 33.4242L10.2742 22.3933C10.408 21.9813 10.2614 21.53 9.91089 21.2753L0.527499 14.4579C-0.256214 13.8885 0.146563 12.6489 1.11529 12.6489H12.7138C13.147 12.6489 13.531 12.3699 13.6648 11.9579L17.249 0.927048Z" fill="#23A9F4"/>
</svg>
